<svg xmlns="http://www.w3.org/2000/svg" viewBox="0 0 32 32" fill="none">
  <circle cx="16" cy="16" r="15" fill="#e8a04a"/>
  <ellipse cx="7" cy="9" rx="4.2" ry="4.8" fill="#e8a04a"/>
  <ellipse cx="25" cy="9" rx="4.2" ry="4.8" fill="#e8a04a"/>
  <ellipse cx="7.2" cy="9.4" rx="2" ry="2.4" fill="#1a1612" opacity="0.2"/>
  <ellipse cx="24.8" cy="9.4" rx="2" ry="2.4" fill="#1a1612" opacity="0.2"/>
  <ellipse cx="16" cy="18.5" rx="10.5" ry="9.5" fill="#e8a04a"/>
  <circle cx="11.2" cy="16.2" r="2.1" fill="#1a1612"/>
  <circle cx="20.8" cy="16.2" r="2.1" fill="#1a1612"/>
  <circle cx="11.7" cy="15.7" r="0.7" fill="#fff8ee"/>
  <circle cx="21.3" cy="15.7" r="0.7" fill="#fff8ee"/>
  <ellipse cx="16" cy="20.2" rx="2.1" ry="1.5" fill="#1a1612"/>
  <path d="M13.2 22.8c1.2 1.4 4.4 1.4 5.6 0" stroke="#1a1612" stroke-width="1.3" stroke-linecap="round"/>
  <path d="M6.5 18.5c-2.2.4-3.6 1.4-4 2.4M25.5 18.5c2.2.4 3.6 1.4 4 2.4" stroke="#1a1612" stroke-width="1.1" stroke-linecap="round" opacity="0.45"/>
</svg>
