<?xml version="1.0" encoding="utf-8"?>
<!-- Generator: Adobe Illustrator 16.0.4, SVG Export Plug-In . SVG Version: 6.00 Build 0)  -->
<!DOCTYPE svg PUBLIC "-//W3C//DTD SVG 1.1//EN" "http://www.w3.org/Graphics/SVG/1.1/DTD/svg11.dtd">
<svg version="1.1" id="Layer_1" xmlns="http://www.w3.org/2000/svg" xmlns:xlink="http://www.w3.org/1999/xlink" x="0px" y="0px"
	 width="200px" height="150px" viewBox="0 0 200 150" enable-background="new 0 0 200 150" xml:space="preserve">
<g>
	<path fill="#0053A1" d="M58.824,63.047c-0.708,0.539-3.168,2.069-6.871,2.069c-6.7,0-11.265-4.222-11.265-10.661
		c0-6.399,4.84-10.658,11.421-10.658c2.56,0,5.492,0.788,7.127,1.49c-0.342,0.757-0.624,1.757-0.741,2.382l-0.179,0.059
		c-1.266-1.401-3.301-2.614-6.312-2.614c-3.82,0-8.22,3.094-8.22,9.264c0,6.008,4.482,9.202,8.489,9.202
		c3.6,0,5.324-1.68,6.87-2.986l0.118,0.118L58.824,63.047z"/>
	<path fill="#0053A1" d="M75.419,63.644c0-0.452,0.038-0.917,0.07-1.143c-2.032,0.187-7.61,0.356-9.786,0.388
		c-0.037-0.543-0.085-6.986-0.031-7.982c0.87,0,5.467,0.06,7.521,0.27c-0.059-0.298-0.089-0.74-0.089-1.038s0.03-0.832,0.089-1.129
		c-1.757,0.148-4.007,0.297-7.521,0.297c0-0.745,0.061-6.176,0.09-7.455c3.87,0,7.375,0.24,9.336,0.387
		c-0.033-0.202-0.071-0.62-0.071-1.027c0-0.406,0.027-0.736,0.071-1.016c-1.032,0.069-4.364,0.15-6.15,0.15
		c-1.786,0-4.544-0.06-6.33-0.15c0.119,2.532,0.239,5.122,0.239,7.683v5.121c0,2.562-0.119,5.152-0.239,7.743
		c1.816-0.09,4.604-0.149,6.42-0.149c0.086,0,0.175,0,0.264,0c0.622,0.002,1.41,0.012,2.223,0.025
		c1.409,0.026,2.895,0.069,3.964,0.124l0,0l0,0C75.445,64.427,75.419,64.095,75.419,63.644z"/>
	<path fill="#0053A1" d="M82.086,54.66v2.369c0,2.561,0.118,5.15,0.239,7.711c-0.507-0.09-1.423-0.099-1.611-0.099
		c-0.187,0-1.103,0.009-1.609,0.099c0.119-2.562,0.238-5.151,0.238-7.711v-5.123c0-2.561-0.12-5.151-0.238-7.711
		c1.132,0.089,2.564,0.15,3.696,0.15s2.263-0.15,3.394-0.15c3.365,0,6.448,0.994,6.448,4.741c0,3.966-3.95,5.389-6.213,5.688
		c1.459,1.815,6.686,8.181,8.412,10.117c-0.595-0.09-1.593-0.099-1.865-0.099c-0.272,0-1.3,0.009-1.865,0.099
		c-1.177-1.795-4.947-7.444-7.508-10.08C83.526,54.66,82.086,54.66,82.086,54.66z M84.082,53.571
		c2.458-0.05,5.687-0.831,5.687-4.229c0-2.96-2.59-3.9-4.615-3.9c-1.37,0-2.263,0.089-2.888,0.148
		c-0.09,2.173-0.178,4.171-0.178,6.315c0,0,0,1.422,0,1.638C82.382,53.584,83.778,53.576,84.082,53.571z"/>
	<path fill="#0053A1" d="M115.729,44.186c-0.346,0.06-0.778,0.109-1.304,0.109c-0.521,0-0.967-0.057-1.269-0.109
		c0.13,2.439,0.354,6.952,0.354,9.913c0,2.226,0,4.171-0.031,5.272c-1.083-1.152-13.507-14.009-14.77-15.382l-0.975-0.01
		c0.044,1.895,0.099,3.951,0.099,7.702c0,4.802-0.067,9.911-0.312,13.06c0.348-0.061,0.778-0.109,1.305-0.109
		c0.52,0,0.966,0.054,1.268,0.109c-0.13-2.439-0.354-6.954-0.354-9.912c0-2.227,0.001-4.519,0.031-5.62
		c1.082,1.152,13.578,14.185,14.769,15.801l0.975,0.009c-0.044-1.895-0.1-4.022-0.1-7.773
		C115.416,52.441,115.483,47.332,115.729,44.186z"/>
	<path fill="#0053A1" d="M61.532,97.824c-5.851-9.26-7.516-18.197-7.749-25.037c-0.901,0-1.802,0-2.704,0
		c0.227,7.462,2.037,15.288,6.085,22.955C58.119,96.513,60.361,97.492,61.532,97.824z"/>
	<path fill="#0053A1" d="M170.797,5.522c0,0-67.284-0.533-88.737-0.522c-3.357,0.002-5.612,0.239-6.338,0.285
		c-26.5,1.717-46.429,24.954-46.518,50.294c-0.024,7.366,1.938,15.669,5.123,26.876c4.209,14.807,9.138,31.789,9.138,31.789h2.689
		l-9.936-33.52l0.075-0.05c7.298,14.102,24.124,25.426,43.216,25.426c10.303,0,19.858-2.883,27.388-8.196l0.065,0.062L62.762,145
		h3.452c0,0,31.037-33.021,41.595-44.231c8.089-8.59,12.293-14.125,14.052-16.997c2.018-3.295,8.426-12.792,8.186-26.779
		l0.085-0.006l19.368,88.012h2.78c0,0-16.251-72.039-19.404-87.106c-3.103-14.826-6.769-24.021-10.725-29.266
		c-1.359-0.757-3.479-1.619-4.479-1.853c5.742,7.245,10.033,18.023,10.033,28.81c0,26.399-21.479,47.879-47.881,47.879
		c-26.4,0-47.879-21.479-47.879-47.879c0-26.402,21.556-47.881,47.895-47.881c11.708,0,22.561,4.294,30.9,11.366
		c1.611,0.223,3.772,0.727,5.063,1.192l0.01-0.027c-5.994-5.977-13.478-10.419-21.803-12.755c0-0.065,0-0.068,0-0.068l76.789,0.479
		V5.522z"/>
	<path fill="#0053A1" d="M68.249,106.342c-1.712-0.253-3.851-0.859-5.138-1.411c5.764,6.56,13.694,11.808,21.482,14.753l2.043-2.168
		C78.19,114.663,72.051,110.079,68.249,106.342"/>
	<path fill="#0053A1" d="M138.688,102.509c-8.544,10.463-21.814,17.508-37.06,17.499c-3.273-0.002-6.449-0.368-9.096-0.907
		l-2.188,2.322c4.184,0.967,7.893,1.329,11.438,1.329c15.682,0,29.095-7.318,37.635-16.95L138.688,102.509"/>
	<path fill="#0053A1" d="M156.497,17.529l-4.611,47.619H151.8c-0.655-8.988-5.136-19.724-10.669-26.511
		c-9.606-11.779-23.702-18.893-39.534-18.893c-15.099,0-28.549,6.699-37.803,17.2l2.119,1.68
		c8.743-9.886,21.267-16.222,35.682-16.222c17.549,0,31.845,8.994,39.842,21.221c7.136,10.91,9.502,24.891,7.848,35.134
		c-0.559,3.46-1.812,10.187-6.422,17.811l0.807,3.545c5.654-8.765,8.522-16.564,10.763-36.504c1.717-15.298,4.666-46.08,4.666-46.08
		L156.497,17.529z"/>
</g>
</svg>
