<?xml version="1.0" encoding="UTF-8"?>
<svg xmlns="http://www.w3.org/2000/svg" version="1.1" viewBox="0 0 113.3857 56.6924">
  <!-- Generator: Adobe Illustrator 28.7.1, SVG Export Plug-In . SVG Version: 1.2.0 Build 142)  -->
  <g>
    <g id="Calque_1">
      <g>
        <path d="M70.6066,21.0289l-.0137.0005c.0016,0,.0027,0,.0043-.0001l.0094-.0004ZM76.8669,23.6162c-1.5333-1.5832-3.6925-2.5901-6.0776-2.5891-.062,0-.1305.0004-.2052.0027l.0087-.0004c-.0351.0008-.0722.0012-.1107.0012-1.3936-.0008-2.6444-.5794-3.5753-1.5336-.9274-.9559-1.5002-2.2671-1.4998-3.6964.0052-2.8906,2.3428-5.2233,5.2287-5.2286,1.4536.0004,2.7646.5842,3.7255,1.535.6768.6728,1.1664,1.5158,1.3969,2.461l3.4162-.6925c-.886-3.8962-4.3871-6.7875-8.5388-6.7891-4.8099.0007-8.7129,3.8964-8.7142,8.7141.0008,2.3682.9481,4.5435,2.4856,6.1248,1.533,1.5828,3.6916,2.5919,6.0751,2.5907.0618,0,.1256-.0004.1918-.002l.0132-.0006c.0273-.0007.0617-.0011.1022-.0011,1.3984.0011,2.6479.5794,3.5772,1.5321.9258.9543,1.4977,2.2647,1.4973,3.6985-.0049,2.8841-2.3365,5.2229-5.2282,5.2282-1.4457-.0031-2.6859-.5737-3.6274-1.5244-.9363-.951-1.5418-2.2829-1.6024-3.7749-.0963-2.354-1.0491-4.5091-2.5972-6.0824-1.543-1.5744-3.7118-2.5638-6.1155-2.5606-2.4002-.0032-4.568.9862-6.1122,2.56-1.5493,1.5726-2.5064,3.728-2.6005,6.0842-.0597,1.4935-.6641,2.8246-1.5997,3.7753-.9409.9499-2.1817,1.5198-3.6302,1.5229-2.8881-.0052-5.2233-2.3419-5.2282-5.2282.005-2.8885,2.3392-5.2233,5.2282-5.2285v-3.4856c-2.8895-.0054-5.2233-2.3382-5.2282-5.2282.005-2.8888,2.3392-5.2233,5.2282-5.2285,2.4549.0045,4.5071,1.6877,5.0727,3.9668l3.4187-.6929c-.8873-3.8733-4.3501-6.7595-8.4915-6.7595-4.8145.0008-8.7134,3.9001-8.7139,8.7141.0003,2.8516,1.3682,5.3818,3.4839,6.9713-2.1157,1.5896-3.4836,4.1198-3.4839,6.9712.0009,4.8121,3.8987,8.7131,8.7139,8.7138,2.403.0033,4.5711-.9891,6.1145-2.5637,1.5484-1.5733,2.504-3.7281,2.5981-6.0805.0601-1.4977.6648-2.8279,1.6007-3.7777.9405-.9482,2.1813-1.5174,3.6291-1.5205,1.454.0036,2.6924.5724,3.6313,1.5203.9334.9486,1.5371,2.2791,1.5986,3.7791.0961,2.3513,1.0524,4.5049,2.6004,6.0782,1.5406,1.572,3.7029,2.5648,6.1003,2.5648h.0119c4.8193-.0007,8.7133-3.9061,8.7141-8.7138,0-2.369-.9453-4.5455-2.4824-6.127Z" fill="#324c97"/>
        <path d="M35.075,45.8567v3.5248h1.2471v-3.5248h0c0-1.3751,1.1187-2.494,2.4941-2.494v-1.2472c-2.0664,0-3.7412,1.6753-3.7412,3.7412Z" fill="#324c97"/>
        <path d="M54.4066,45.8567c-.0041-2.0625-1.6771-3.7329-3.7409-3.7329s-3.7363,1.6703-3.7407,3.7329h0v3.5248h1.2468v-3.5206c.0024-1.3731,1.1201-2.4902,2.4939-2.4902s2.4923,1.1171,2.494,2.4902v3.5207h1.2473v-3.5249h-.0004Z" fill="#324c97"/>
        <path d="M62.8744,45.8567c-.0042-2.0625-1.6771-3.7329-3.7406-3.7329s-3.7364,1.6703-3.7409,3.7329h-.0004v3.5249h1.2473v-3.5207c.0022-1.3731,1.1202-2.4902,2.494-2.4902s2.4918,1.1171,2.4936,2.4902v3.5207h1.247v-3.5249h0Z" fill="#324c97"/>
        <path d="M46.1245,45.8567c0-2.0659-1.6747-3.7412-3.7409-3.7412s-3.7411,1.6754-3.7411,3.7412v.008c0,2.0661,1.675,3.7412,3.7411,3.7412v-1.2469c-1.163,0-2.1427-.8006-2.4171-1.8794h6.1565l.0015-.6229ZM42.3838,43.3627c1.1595,0,2.1368.7956,2.4149,1.8697h-4.8297c.2778-1.0741,1.2551-1.8697,2.4148-1.8697Z" fill="#324c97"/>
        <path d="M71.1566,45.8567c0-2.0659-1.6748-3.7412-3.7412-3.7412s-3.7407,1.6754-3.7407,3.7412v.008c0,2.0661,1.675,3.7412,3.7407,3.7412v-1.2469c-1.163,0-2.1423-.8006-2.4172-1.8794h6.157l.0014-.6229ZM67.4152,43.3627c1.1597,0,2.1373.7956,2.415,1.8697h-4.8294c.2776-1.0741,1.2549-1.8697,2.4144-1.8697Z" fill="#324c97"/>
        <path d="M71.9566,45.8567h1.2472c0-1.3751,1.1184-2.494,2.4939-2.494.5773,0,1.1087.1976,1.5319.5282l.9928-.7944c-.6651-.6089-1.5515-.981-2.5247-.981-2.0662,0-3.7411,1.6753-3.7411,3.7412Z" fill="#324c97"/>
        <path d="M76.3214,45.8647c0,1.3753-1.1186,2.4943-2.494,2.4943-.5747,0-1.1048-.1963-1.5271-.5244l-.9934.7948c.6651.6068,1.5498.9766,2.5205.9766,2.0662,0,3.741-1.6752,3.741-3.7412h-1.247Z" fill="#324c97"/>
      </g>
    </g>
  </g>
</svg>